<svg width="16" height="13" viewBox="0 0 16 13" fill="none" xmlns="http://www.w3.org/2000/svg">
<path d="M15.8304 1.52511C15.3818 2.18136 14.8394 2.74051 14.2032 3.20257C14.2099 3.29632 14.2132 3.43694 14.2132 3.62444C14.2132 4.49498 14.086 5.36551 13.8315 6.23605C13.5771 7.09989 13.1887 7.93025 12.6664 8.72712C12.1507 9.524 11.5347 10.2305 10.8182 10.8465C10.1016 11.4559 9.23779 11.9448 8.22663 12.3131C7.21547 12.6747 6.134 12.8555 4.98221 12.8555C3.16748 12.8555 1.50677 12.37 6.97784e-05 11.399C0.234445 11.4258 0.495606 11.4392 0.783552 11.4392C2.29025 11.4392 3.63288 10.9771 4.81145 10.053C4.10833 10.0396 3.47886 9.82533 2.92306 9.41016C2.36726 8.98828 1.98556 8.45257 1.77797 7.80301C1.99895 7.8365 2.20319 7.85324 2.39069 7.85324C2.67864 7.85324 2.96324 7.81641 3.24449 7.74275C2.49449 7.58873 1.87172 7.21708 1.37619 6.62779C0.887347 6.03181 0.642927 5.34208 0.642927 4.55859V4.51841C1.09828 4.77288 1.58712 4.91016 2.10944 4.93024C1.66748 4.6356 1.31592 4.25056 1.05476 3.77511C0.793597 3.29966 0.663016 2.78404 0.663016 2.22824C0.663016 1.63895 0.810338 1.09319 1.10498 0.59096C1.91525 1.58873 2.89962 2.38895 4.05811 2.99163C5.22328 3.58761 6.46882 3.91908 7.79471 3.98605C7.74114 3.73158 7.71436 3.48382 7.71436 3.24274C7.71436 2.34542 8.02909 1.58203 8.65855 0.952567C9.29471 0.316406 10.0615 -0.00167441 10.9588 -0.00167441C11.8963 -0.00167441 12.6865 0.339843 13.3293 1.02288C14.0592 0.882254 14.7456 0.621093 15.3885 0.239397C15.1407 1.00949 14.6652 1.60547 13.9621 2.02734C14.5849 1.96038 15.2077 1.79297 15.8304 1.52511Z" fill="white"/>
</svg>
